<mxfile host="app.diagrams.net" agent="Mozilla/5.0 (Windows NT 10.0; Win64; x64) AppleWebKit/537.36 (KHTML, like Gecko) Chrome/141.0.0.0 Safari/537.36" version="28.2.8">
  <diagram name="Page-1" id="39FTkUSp9BaNnT-MBCD9">
    <mxGraphModel grid="1" page="1" gridSize="10" guides="1" tooltips="1" connect="1" arrows="1" fold="1" pageScale="1" pageWidth="827" pageHeight="1169" math="0" shadow="0">
      <root>
        <mxCell id="0" />
        <mxCell id="1" parent="0" />
        <mxCell id="4FGdRYXVNeWuKSH_9BnK-1" value="crm_cust_info" style="swimlane;fontStyle=0;childLayout=stackLayout;horizontal=1;startSize=30;horizontalStack=0;resizeParent=1;resizeParentMax=0;resizeLast=0;collapsible=1;marginBottom=0;whiteSpace=wrap;html=1;rounded=0;fillColor=#dae8fc;gradientColor=#7ea6e0;strokeColor=#6c8ebf;fontSize=20;" vertex="1" parent="1">
          <mxGeometry x="590" y="290" width="200" height="90" as="geometry" />
        </mxCell>
        <mxCell id="4FGdRYXVNeWuKSH_9BnK-6" value="&lt;font style=&quot;font-size: 20px;&quot;&gt;cst_id&lt;/font&gt;" style="text;html=1;whiteSpace=wrap;strokeColor=none;fillColor=none;align=center;verticalAlign=middle;rounded=0;" vertex="1" parent="4FGdRYXVNeWuKSH_9BnK-1">
          <mxGeometry y="30" width="200" height="30" as="geometry" />
        </mxCell>
        <mxCell id="4FGdRYXVNeWuKSH_9BnK-22" value="&lt;font style=&quot;font-size: 20px;&quot;&gt;cst_key&lt;/font&gt;" style="text;html=1;whiteSpace=wrap;strokeColor=none;fillColor=none;align=center;verticalAlign=middle;rounded=0;" vertex="1" parent="4FGdRYXVNeWuKSH_9BnK-1">
          <mxGeometry y="60" width="200" height="30" as="geometry" />
        </mxCell>
        <mxCell id="4FGdRYXVNeWuKSH_9BnK-7" value="&lt;font style=&quot;font-size: 14px;&quot;&gt;Customer Information&lt;/font&gt;&lt;div&gt;&lt;br&gt;&lt;/div&gt;" style="text;html=1;whiteSpace=wrap;strokeColor=none;fillColor=none;align=center;verticalAlign=middle;rounded=0;" vertex="1" parent="1">
          <mxGeometry x="618.5" y="270" width="143" height="30" as="geometry" />
        </mxCell>
        <mxCell id="4FGdRYXVNeWuKSH_9BnK-8" value="crm_prd_info" style="swimlane;fontStyle=0;childLayout=stackLayout;horizontal=1;startSize=30;horizontalStack=0;resizeParent=1;resizeParentMax=0;resizeLast=0;collapsible=1;marginBottom=0;whiteSpace=wrap;html=1;rounded=0;fillColor=#dae8fc;gradientColor=#7ea6e0;strokeColor=#6c8ebf;fontSize=20;" vertex="1" parent="1">
          <mxGeometry x="590" y="490" width="200" height="60" as="geometry" />
        </mxCell>
        <mxCell id="4FGdRYXVNeWuKSH_9BnK-9" value="&lt;span style=&quot;font-size: 20px;&quot;&gt;prd_key&lt;/span&gt;" style="text;html=1;whiteSpace=wrap;strokeColor=none;fillColor=none;align=center;verticalAlign=middle;rounded=0;" vertex="1" parent="4FGdRYXVNeWuKSH_9BnK-8">
          <mxGeometry y="30" width="200" height="30" as="geometry" />
        </mxCell>
        <mxCell id="4FGdRYXVNeWuKSH_9BnK-10" value="&lt;div&gt;&lt;span style=&quot;font-size: 14px;&quot;&gt;Current &amp;amp; Hirstory Product Information&lt;/span&gt;&lt;/div&gt;" style="text;html=1;whiteSpace=wrap;strokeColor=none;fillColor=none;align=center;verticalAlign=middle;rounded=0;" vertex="1" parent="1">
          <mxGeometry x="618.5" y="450" width="143" height="30" as="geometry" />
        </mxCell>
        <mxCell id="4FGdRYXVNeWuKSH_9BnK-11" value="crm_sales_details" style="swimlane;fontStyle=0;childLayout=stackLayout;horizontal=1;startSize=30;horizontalStack=0;resizeParent=1;resizeParentMax=0;resizeLast=0;collapsible=1;marginBottom=0;whiteSpace=wrap;html=1;rounded=0;fillColor=#dae8fc;gradientColor=#7ea6e0;strokeColor=#6c8ebf;fontSize=20;" vertex="1" parent="1">
          <mxGeometry x="260" y="380" width="200" height="90" as="geometry" />
        </mxCell>
        <mxCell id="4FGdRYXVNeWuKSH_9BnK-12" value="&lt;span style=&quot;font-size: 20px;&quot;&gt;cust_id&lt;/span&gt;" style="text;html=1;whiteSpace=wrap;strokeColor=none;fillColor=none;align=center;verticalAlign=middle;rounded=0;" vertex="1" parent="4FGdRYXVNeWuKSH_9BnK-11">
          <mxGeometry y="30" width="200" height="30" as="geometry" />
        </mxCell>
        <mxCell id="4FGdRYXVNeWuKSH_9BnK-16" value="&lt;font style=&quot;font-size: 20px;&quot;&gt;prd_key&lt;/font&gt;" style="text;html=1;whiteSpace=wrap;strokeColor=none;fillColor=none;align=center;verticalAlign=middle;rounded=0;" vertex="1" parent="4FGdRYXVNeWuKSH_9BnK-11">
          <mxGeometry y="60" width="200" height="30" as="geometry" />
        </mxCell>
        <mxCell id="4FGdRYXVNeWuKSH_9BnK-13" value="&lt;span style=&quot;font-size: 14px;&quot;&gt;Transactional Records about Sales &amp;amp; Orders&lt;/span&gt;" style="text;html=1;whiteSpace=wrap;strokeColor=none;fillColor=none;align=center;verticalAlign=middle;rounded=0;" vertex="1" parent="1">
          <mxGeometry x="288.5" y="350" width="143" height="30" as="geometry" />
        </mxCell>
        <mxCell id="4FGdRYXVNeWuKSH_9BnK-17" style="edgeStyle=orthogonalEdgeStyle;rounded=0;orthogonalLoop=1;jettySize=auto;html=1;entryX=0;entryY=0.5;entryDx=0;entryDy=0;" edge="1" parent="1" source="4FGdRYXVNeWuKSH_9BnK-12" target="4FGdRYXVNeWuKSH_9BnK-6">
          <mxGeometry relative="1" as="geometry" />
        </mxCell>
        <mxCell id="4FGdRYXVNeWuKSH_9BnK-18" style="edgeStyle=orthogonalEdgeStyle;rounded=0;orthogonalLoop=1;jettySize=auto;html=1;entryX=0;entryY=0.5;entryDx=0;entryDy=0;" edge="1" parent="1" source="4FGdRYXVNeWuKSH_9BnK-16" target="4FGdRYXVNeWuKSH_9BnK-9">
          <mxGeometry relative="1" as="geometry" />
        </mxCell>
        <mxCell id="4FGdRYXVNeWuKSH_9BnK-19" value="erp_cust_az12" style="swimlane;fontStyle=0;childLayout=stackLayout;horizontal=1;startSize=30;horizontalStack=0;resizeParent=1;resizeParentMax=0;resizeLast=0;collapsible=1;marginBottom=0;whiteSpace=wrap;html=1;rounded=0;fillColor=#ffcd28;gradientColor=#ffa500;strokeColor=#d79b00;fontSize=20;" vertex="1" parent="1">
          <mxGeometry x="960" y="290" width="200" height="60" as="geometry" />
        </mxCell>
        <mxCell id="4FGdRYXVNeWuKSH_9BnK-20" value="&lt;span style=&quot;font-size: 20px;&quot;&gt;cid&lt;/span&gt;" style="text;html=1;whiteSpace=wrap;strokeColor=none;fillColor=none;align=center;verticalAlign=middle;rounded=0;" vertex="1" parent="4FGdRYXVNeWuKSH_9BnK-19">
          <mxGeometry y="30" width="200" height="30" as="geometry" />
        </mxCell>
        <mxCell id="4FGdRYXVNeWuKSH_9BnK-21" value="&lt;div&gt;&lt;span style=&quot;font-size: 14px;&quot;&gt;Extra Customer Information (Birthdate)&lt;/span&gt;&lt;/div&gt;" style="text;html=1;whiteSpace=wrap;strokeColor=none;fillColor=none;align=center;verticalAlign=middle;rounded=0;" vertex="1" parent="1">
          <mxGeometry x="988.5" y="250" width="143" height="30" as="geometry" />
        </mxCell>
        <mxCell id="4FGdRYXVNeWuKSH_9BnK-23" style="edgeStyle=orthogonalEdgeStyle;rounded=0;orthogonalLoop=1;jettySize=auto;html=1;entryX=0;entryY=0.5;entryDx=0;entryDy=0;" edge="1" parent="1" source="4FGdRYXVNeWuKSH_9BnK-22" target="4FGdRYXVNeWuKSH_9BnK-20">
          <mxGeometry relative="1" as="geometry" />
        </mxCell>
        <mxCell id="4FGdRYXVNeWuKSH_9BnK-24" value="erp_loc_a101" style="swimlane;fontStyle=0;childLayout=stackLayout;horizontal=1;startSize=30;horizontalStack=0;resizeParent=1;resizeParentMax=0;resizeLast=0;collapsible=1;marginBottom=0;whiteSpace=wrap;html=1;rounded=0;fillColor=#ffcd28;gradientColor=#ffa500;strokeColor=#d79b00;fontSize=20;" vertex="1" parent="1">
          <mxGeometry x="960" y="440" width="200" height="60" as="geometry" />
        </mxCell>
        <mxCell id="4FGdRYXVNeWuKSH_9BnK-25" value="&lt;span style=&quot;font-size: 20px;&quot;&gt;cid&lt;/span&gt;" style="text;html=1;whiteSpace=wrap;strokeColor=none;fillColor=none;align=center;verticalAlign=middle;rounded=0;" vertex="1" parent="4FGdRYXVNeWuKSH_9BnK-24">
          <mxGeometry y="30" width="200" height="30" as="geometry" />
        </mxCell>
        <mxCell id="4FGdRYXVNeWuKSH_9BnK-26" value="&lt;span style=&quot;font-size: 14px;&quot;&gt;Location of Customers (Country)&lt;/span&gt;" style="text;html=1;whiteSpace=wrap;strokeColor=none;fillColor=none;align=center;verticalAlign=middle;rounded=0;" vertex="1" parent="1">
          <mxGeometry x="988.5" y="400" width="143" height="30" as="geometry" />
        </mxCell>
        <mxCell id="4FGdRYXVNeWuKSH_9BnK-27" style="edgeStyle=orthogonalEdgeStyle;rounded=0;orthogonalLoop=1;jettySize=auto;html=1;entryX=0;entryY=0.5;entryDx=0;entryDy=0;" edge="1" parent="1" source="4FGdRYXVNeWuKSH_9BnK-22" target="4FGdRYXVNeWuKSH_9BnK-25">
          <mxGeometry relative="1" as="geometry" />
        </mxCell>
        <mxCell id="4FGdRYXVNeWuKSH_9BnK-28" value="erp_px_cat_g1v2" style="swimlane;fontStyle=0;childLayout=stackLayout;horizontal=1;startSize=30;horizontalStack=0;resizeParent=1;resizeParentMax=0;resizeLast=0;collapsible=1;marginBottom=0;whiteSpace=wrap;html=1;rounded=0;fillColor=#ffcd28;gradientColor=#ffa500;strokeColor=#d79b00;fontSize=20;" vertex="1" parent="1">
          <mxGeometry x="960" y="580" width="200" height="60" as="geometry" />
        </mxCell>
        <mxCell id="4FGdRYXVNeWuKSH_9BnK-29" value="&lt;span style=&quot;font-size: 20px;&quot;&gt;id&lt;/span&gt;" style="text;html=1;whiteSpace=wrap;strokeColor=none;fillColor=none;align=center;verticalAlign=middle;rounded=0;" vertex="1" parent="4FGdRYXVNeWuKSH_9BnK-28">
          <mxGeometry y="30" width="200" height="30" as="geometry" />
        </mxCell>
        <mxCell id="4FGdRYXVNeWuKSH_9BnK-31" style="edgeStyle=orthogonalEdgeStyle;rounded=0;orthogonalLoop=1;jettySize=auto;html=1;entryX=0;entryY=0.5;entryDx=0;entryDy=0;" edge="1" parent="1" source="4FGdRYXVNeWuKSH_9BnK-9" target="4FGdRYXVNeWuKSH_9BnK-29">
          <mxGeometry relative="1" as="geometry" />
        </mxCell>
        <mxCell id="4FGdRYXVNeWuKSH_9BnK-32" value="" style="rounded=1;whiteSpace=wrap;html=1;fillColor=none;dashed=1;" vertex="1" parent="1">
          <mxGeometry x="250" y="200" width="560" height="480" as="geometry" />
        </mxCell>
        <mxCell id="4FGdRYXVNeWuKSH_9BnK-34" value="&lt;b&gt;&lt;font style=&quot;font-size: 35px;&quot;&gt;CRM&lt;/font&gt;&lt;/b&gt;" style="rounded=1;whiteSpace=wrap;html=1;fillColor=#dae8fc;gradientColor=#7ea6e0;strokeColor=#6c8ebf;" vertex="1" parent="1">
          <mxGeometry x="470" y="160" width="120" height="60" as="geometry" />
        </mxCell>
        <mxCell id="4FGdRYXVNeWuKSH_9BnK-35" value="" style="rounded=1;whiteSpace=wrap;html=1;fillColor=none;dashed=1;" vertex="1" parent="1">
          <mxGeometry x="855" y="200" width="370" height="480" as="geometry" />
        </mxCell>
        <mxCell id="4FGdRYXVNeWuKSH_9BnK-36" value="&lt;span style=&quot;font-size: 35px;&quot;&gt;&lt;b&gt;ERP&lt;/b&gt;&lt;/span&gt;" style="rounded=1;whiteSpace=wrap;html=1;fillColor=#ffcd28;gradientColor=#ffa500;strokeColor=#d79b00;" vertex="1" parent="1">
          <mxGeometry x="980" y="160" width="120" height="60" as="geometry" />
        </mxCell>
        <mxCell id="4FGdRYXVNeWuKSH_9BnK-30" value="&lt;span style=&quot;font-size: 14px;&quot;&gt;Product Categories&lt;/span&gt;" style="text;html=1;whiteSpace=wrap;strokeColor=none;fillColor=none;align=center;verticalAlign=middle;rounded=0;" vertex="1" parent="1">
          <mxGeometry x="960" y="550" width="200" height="30" as="geometry" />
        </mxCell>
        <mxCell id="4FGdRYXVNeWuKSH_9BnK-37" value="" style="rounded=0;whiteSpace=wrap;html=1;fillColor=none;" vertex="1" parent="1">
          <mxGeometry x="200" y="105" width="1080" height="640" as="geometry" />
        </mxCell>
        <mxCell id="ARQTPTnSBitFRHe-PwVT-1" value="&lt;b&gt;&lt;font style=&quot;font-size: 16px;&quot;&gt;CUSTOMER&lt;/font&gt;&lt;/b&gt;" style="rounded=0;whiteSpace=wrap;html=1;fillColor=#008a00;fontColor=#ffffff;strokeColor=#005700;" vertex="1" parent="1">
          <mxGeometry x="590" y="380" width="200" height="30" as="geometry" />
        </mxCell>
        <mxCell id="ARQTPTnSBitFRHe-PwVT-2" value="&lt;b&gt;&lt;font style=&quot;font-size: 16px;&quot;&gt;CUSTOMER&lt;/font&gt;&lt;/b&gt;" style="rounded=0;whiteSpace=wrap;html=1;fillColor=#008a00;fontColor=#ffffff;strokeColor=#005700;glass=0;shadow=0;" vertex="1" parent="1">
          <mxGeometry x="960" y="350" width="200" height="30" as="geometry" />
        </mxCell>
        <mxCell id="ARQTPTnSBitFRHe-PwVT-3" value="&lt;b&gt;&lt;font style=&quot;font-size: 16px;&quot;&gt;CUSTOMER&lt;/font&gt;&lt;/b&gt;" style="rounded=0;whiteSpace=wrap;html=1;fillColor=#008a00;fontColor=#ffffff;strokeColor=#005700;" vertex="1" parent="1">
          <mxGeometry x="960" y="500" width="200" height="30" as="geometry" />
        </mxCell>
        <mxCell id="ARQTPTnSBitFRHe-PwVT-4" value="&lt;b&gt;&lt;font style=&quot;font-size: 16px;&quot;&gt;PRODUCT&lt;/font&gt;&lt;/b&gt;" style="rounded=0;whiteSpace=wrap;html=1;fillColor=#a20025;fontColor=#ffffff;strokeColor=#6F0000;" vertex="1" parent="1">
          <mxGeometry x="960" y="640" width="200" height="30" as="geometry" />
        </mxCell>
        <mxCell id="ARQTPTnSBitFRHe-PwVT-5" value="&lt;b&gt;&lt;font style=&quot;font-size: 16px;&quot;&gt;PRODUCT&lt;/font&gt;&lt;/b&gt;" style="rounded=0;whiteSpace=wrap;html=1;fillColor=#a20025;fontColor=#ffffff;strokeColor=#6F0000;" vertex="1" parent="1">
          <mxGeometry x="590" y="550" width="200" height="30" as="geometry" />
        </mxCell>
        <mxCell id="ARQTPTnSBitFRHe-PwVT-6" value="&lt;b&gt;&lt;font style=&quot;font-size: 16px;&quot;&gt;SALES&lt;/font&gt;&lt;/b&gt;" style="rounded=0;whiteSpace=wrap;html=1;fillColor=#0050ef;fontColor=#ffffff;strokeColor=#001DBC;" vertex="1" parent="1">
          <mxGeometry x="260" y="470" width="200" height="30" as="geometry" />
        </mxCell>
      </root>
    </mxGraphModel>
  </diagram>
</mxfile>
